<?xml version="1.0" encoding="UTF-8"?>
<!DOCTYPE svg PUBLIC "-//W3C//DTD SVG 1.1//EN" "http://www.w3.org/Graphics/SVG/1.1/DTD/svg11.dtd">
<svg xmlns="http://www.w3.org/2000/svg" version="1.1" width="225px" height="225px" style="shape-rendering:geometricPrecision; text-rendering:geometricPrecision; image-rendering:optimizeQuality; fill-rule:evenodd; clip-rule:evenodd" xmlns:xlink="http://www.w3.org/1999/xlink">
<g><path style="opacity:1" fill="#f7f7f7" d="M 36.5,-0.5 C 99.1667,-0.5 161.833,-0.5 224.5,-0.5C 224.5,4.5 224.5,9.5 224.5,14.5C 222.833,14.5 221.167,14.5 219.5,14.5C 219.5,16.1667 219.5,17.8333 219.5,19.5C 217.833,19.5 216.167,19.5 214.5,19.5C 214.5,17.8333 214.5,16.1667 214.5,14.5C 212.833,14.5 211.167,14.5 209.5,14.5C 209.5,16.1667 209.5,17.8333 209.5,19.5C 207.833,19.5 206.167,19.5 204.5,19.5C 204.5,17.8333 204.5,16.1667 204.5,14.5C 202.833,14.5 201.167,14.5 199.5,14.5C 199.5,16.1667 199.5,17.8333 199.5,19.5C 197.833,19.5 196.167,19.5 194.5,19.5C 194.5,17.8333 194.5,16.1667 194.5,14.5C 192.833,14.5 191.167,14.5 189.5,14.5C 189.5,16.1667 189.5,17.8333 189.5,19.5C 187.833,19.5 186.167,19.5 184.5,19.5C 184.5,17.8333 184.5,16.1667 184.5,14.5C 182.833,14.5 181.167,14.5 179.5,14.5C 179.5,16.1667 179.5,17.8333 179.5,19.5C 177.833,19.5 176.167,19.5 174.5,19.5C 174.5,17.8333 174.5,16.1667 174.5,14.5C 172.833,14.5 171.167,14.5 169.5,14.5C 169.5,16.1667 169.5,17.8333 169.5,19.5C 167.833,19.5 166.167,19.5 164.5,19.5C 164.5,17.8333 164.5,16.1667 164.5,14.5C 162.833,14.5 161.167,14.5 159.5,14.5C 159.5,16.1667 159.5,17.8333 159.5,19.5C 157.833,19.5 156.167,19.5 154.5,19.5C 154.5,17.8333 154.5,16.1667 154.5,14.5C 152.833,14.5 151.167,14.5 149.5,14.5C 149.5,16.1667 149.5,17.8333 149.5,19.5C 147.833,19.5 146.167,19.5 144.5,19.5C 144.5,17.8333 144.5,16.1667 144.5,14.5C 142.833,14.5 141.167,14.5 139.5,14.5C 139.5,16.1667 139.5,17.8333 139.5,19.5C 137.833,19.5 136.167,19.5 134.5,19.5C 134.5,17.8333 134.5,16.1667 134.5,14.5C 132.833,14.5 131.167,14.5 129.5,14.5C 129.5,16.1667 129.5,17.8333 129.5,19.5C 127.833,19.5 126.167,19.5 124.5,19.5C 124.5,17.8333 124.5,16.1667 124.5,14.5C 122.833,14.5 121.167,14.5 119.5,14.5C 119.5,16.1667 119.5,17.8333 119.5,19.5C 117.833,19.5 116.167,19.5 114.5,19.5C 114.5,17.8333 114.5,16.1667 114.5,14.5C 112.833,14.5 111.167,14.5 109.5,14.5C 109.5,16.1667 109.5,17.8333 109.5,19.5C 107.833,19.5 106.167,19.5 104.5,19.5C 104.5,17.8333 104.5,16.1667 104.5,14.5C 102.833,14.5 101.167,14.5 99.5,14.5C 99.5,16.1667 99.5,17.8333 99.5,19.5C 97.8333,19.5 96.1667,19.5 94.5,19.5C 94.5,17.8333 94.5,16.1667 94.5,14.5C 92.8333,14.5 91.1667,14.5 89.5,14.5C 89.5,16.1667 89.5,17.8333 89.5,19.5C 87.8333,19.5 86.1667,19.5 84.5,19.5C 84.5,17.8333 84.5,16.1667 84.5,14.5C 82.8333,14.5 81.1667,14.5 79.5,14.5C 79.5,16.1667 79.5,17.8333 79.5,19.5C 77.8333,19.5 76.1667,19.5 74.5,19.5C 74.5,17.8333 74.5,16.1667 74.5,14.5C 72.8333,14.5 71.1667,14.5 69.5,14.5C 69.5,16.1667 69.5,17.8333 69.5,19.5C 67.8333,19.5 66.1667,19.5 64.5,19.5C 64.5,17.8333 64.5,16.1667 64.5,14.5C 62.8333,14.5 61.1667,14.5 59.5,14.5C 59.5,16.1667 59.5,17.8333 59.5,19.5C 57.8333,19.5 56.1667,19.5 54.5,19.5C 54.5,17.8333 54.5,16.1667 54.5,14.5C 52.8333,14.5 51.1667,14.5 49.5,14.5C 49.5,12.8333 49.5,11.1667 49.5,9.5C 47.8333,9.5 46.1667,9.5 44.5,9.5C 44.5,7.83333 44.5,6.16667 44.5,4.5C 42.5,4.5 40.5,4.5 38.5,4.5C 37.5592,2.95047 36.8925,1.2838 36.5,-0.5 Z"/></g>
<g><path style="opacity:1" fill="#088178" d="M -0.5,-0.5 C 11.8333,-0.5 24.1667,-0.5 36.5,-0.5C 36.8925,1.2838 37.5592,2.95047 38.5,4.5C 40.7549,10.177 43.4215,15.677 46.5,21C 102.833,21.3333 159.167,21.6667 215.5,22C 220.346,23.0152 223.346,25.8486 224.5,30.5C 224.5,32.5 224.5,34.5 224.5,36.5C 211.028,60.7712 197.528,85.1045 184,109.5C 181.014,115.82 176.181,119.987 169.5,122C 139.494,122.167 109.494,122.667 79.5,123.5C 75.8944,129.712 72.5611,136.045 69.5,142.5C 69.6082,143.442 69.9415,144.275 70.5,145C 114.165,145.5 157.832,145.667 201.5,145.5C 201.5,152.833 201.5,160.167 201.5,167.5C 154.832,167.667 108.165,167.5 61.5,167C 49.1657,162.987 43.6657,154.487 45,141.5C 50.032,129.77 55.8653,118.436 62.5,107.5C 49.1667,79.1667 35.8333,50.8333 22.5,22.5C 14.8622,21.5025 7.19552,21.1692 -0.5,21.5C -0.5,14.1667 -0.5,6.83333 -0.5,-0.5 Z"/></g>
<g><path style="opacity:1" fill="#eeeeee" d="M 38.5,4.5 C 40.5,4.5 42.5,4.5 44.5,4.5C 44.5,6.16667 44.5,7.83333 44.5,9.5C 46.1667,9.5 47.8333,9.5 49.5,9.5C 49.5,11.1667 49.5,12.8333 49.5,14.5C 51.1667,14.5 52.8333,14.5 54.5,14.5C 54.5,16.1667 54.5,17.8333 54.5,19.5C 56.1667,19.5 57.8333,19.5 59.5,19.5C 59.5,17.8333 59.5,16.1667 59.5,14.5C 61.1667,14.5 62.8333,14.5 64.5,14.5C 64.5,16.1667 64.5,17.8333 64.5,19.5C 66.1667,19.5 67.8333,19.5 69.5,19.5C 69.5,17.8333 69.5,16.1667 69.5,14.5C 71.1667,14.5 72.8333,14.5 74.5,14.5C 74.5,16.1667 74.5,17.8333 74.5,19.5C 76.1667,19.5 77.8333,19.5 79.5,19.5C 79.5,17.8333 79.5,16.1667 79.5,14.5C 81.1667,14.5 82.8333,14.5 84.5,14.5C 84.5,16.1667 84.5,17.8333 84.5,19.5C 86.1667,19.5 87.8333,19.5 89.5,19.5C 89.5,17.8333 89.5,16.1667 89.5,14.5C 91.1667,14.5 92.8333,14.5 94.5,14.5C 94.5,16.1667 94.5,17.8333 94.5,19.5C 96.1667,19.5 97.8333,19.5 99.5,19.5C 99.5,17.8333 99.5,16.1667 99.5,14.5C 101.167,14.5 102.833,14.5 104.5,14.5C 104.5,16.1667 104.5,17.8333 104.5,19.5C 106.167,19.5 107.833,19.5 109.5,19.5C 109.5,17.8333 109.5,16.1667 109.5,14.5C 111.167,14.5 112.833,14.5 114.5,14.5C 114.5,16.1667 114.5,17.8333 114.5,19.5C 116.167,19.5 117.833,19.5 119.5,19.5C 119.5,17.8333 119.5,16.1667 119.5,14.5C 121.167,14.5 122.833,14.5 124.5,14.5C 124.5,16.1667 124.5,17.8333 124.5,19.5C 126.167,19.5 127.833,19.5 129.5,19.5C 129.5,17.8333 129.5,16.1667 129.5,14.5C 131.167,14.5 132.833,14.5 134.5,14.5C 134.5,16.1667 134.5,17.8333 134.5,19.5C 136.167,19.5 137.833,19.5 139.5,19.5C 139.5,17.8333 139.5,16.1667 139.5,14.5C 141.167,14.5 142.833,14.5 144.5,14.5C 144.5,16.1667 144.5,17.8333 144.5,19.5C 146.167,19.5 147.833,19.5 149.5,19.5C 149.5,17.8333 149.5,16.1667 149.5,14.5C 151.167,14.5 152.833,14.5 154.5,14.5C 154.5,16.1667 154.5,17.8333 154.5,19.5C 156.167,19.5 157.833,19.5 159.5,19.5C 159.5,17.8333 159.5,16.1667 159.5,14.5C 161.167,14.5 162.833,14.5 164.5,14.5C 164.5,16.1667 164.5,17.8333 164.5,19.5C 166.167,19.5 167.833,19.5 169.5,19.5C 169.5,17.8333 169.5,16.1667 169.5,14.5C 171.167,14.5 172.833,14.5 174.5,14.5C 174.5,16.1667 174.5,17.8333 174.5,19.5C 176.167,19.5 177.833,19.5 179.5,19.5C 179.5,17.8333 179.5,16.1667 179.5,14.5C 181.167,14.5 182.833,14.5 184.5,14.5C 184.5,16.1667 184.5,17.8333 184.5,19.5C 186.167,19.5 187.833,19.5 189.5,19.5C 189.5,17.8333 189.5,16.1667 189.5,14.5C 191.167,14.5 192.833,14.5 194.5,14.5C 194.5,16.1667 194.5,17.8333 194.5,19.5C 196.167,19.5 197.833,19.5 199.5,19.5C 199.5,17.8333 199.5,16.1667 199.5,14.5C 201.167,14.5 202.833,14.5 204.5,14.5C 204.5,16.1667 204.5,17.8333 204.5,19.5C 206.167,19.5 207.833,19.5 209.5,19.5C 209.5,17.8333 209.5,16.1667 209.5,14.5C 211.167,14.5 212.833,14.5 214.5,14.5C 214.5,16.1667 214.5,17.8333 214.5,19.5C 216.167,19.5 217.833,19.5 219.5,19.5C 219.5,17.8333 219.5,16.1667 219.5,14.5C 221.167,14.5 222.833,14.5 224.5,14.5C 224.5,19.8333 224.5,25.1667 224.5,30.5C 223.346,25.8486 220.346,23.0152 215.5,22C 159.167,21.6667 102.833,21.3333 46.5,21C 43.4215,15.677 40.7549,10.177 38.5,4.5 Z"/></g>
<g><path style="opacity:1" fill="#f4f4f4" d="M -0.5,21.5 C 7.19552,21.1692 14.8622,21.5025 22.5,22.5C 35.8333,50.8333 49.1667,79.1667 62.5,107.5C 55.8653,118.436 50.032,129.77 45,141.5C 43.6657,154.487 49.1657,162.987 61.5,167C 108.165,167.5 154.832,167.667 201.5,167.5C 201.5,160.167 201.5,152.833 201.5,145.5C 157.832,145.667 114.165,145.5 70.5,145C 69.9415,144.275 69.6082,143.442 69.5,142.5C 72.5611,136.045 75.8944,129.712 79.5,123.5C 109.494,122.667 139.494,122.167 169.5,122C 176.181,119.987 181.014,115.82 184,109.5C 197.528,85.1045 211.028,60.7712 224.5,36.5C 224.5,99.1667 224.5,161.833 224.5,224.5C 149.5,224.5 74.5,224.5 -0.5,224.5C -0.5,156.833 -0.5,89.1667 -0.5,21.5 Z"/></g>
<g><path style="opacity:1" fill="#088178" d="M 61.5,179.5 C 77.8365,178.34 87.1698,185.84 89.5,202C 85.2005,220.818 73.8672,227.151 55.5,221C 44.4397,212.59 41.9397,202.09 48,189.5C 51.4043,184.561 55.9043,181.228 61.5,179.5 Z"/></g>
<g><path style="opacity:1" fill="#0a837a" d="M 173.5,179.5 C 189.748,178.268 199.081,185.601 201.5,201.5C 199.131,218.363 189.464,225.529 172.5,223C 157.679,215.874 153.512,204.708 160,189.5C 163.531,184.795 168.031,181.462 173.5,179.5 Z"/></g>
</svg>
