<?xml version="1.0" encoding="UTF-8"?>
<!DOCTYPE svg PUBLIC "-//W3C//DTD SVG 1.1//EN" "http://www.w3.org/Graphics/SVG/1.1/DTD/svg11.dtd">
<svg xmlns="http://www.w3.org/2000/svg" version="1.1" width="800px" height="800px" style="shape-rendering:geometricPrecision; text-rendering:geometricPrecision; image-rendering:optimizeQuality; fill-rule:evenodd; clip-rule:evenodd" xmlns:xlink="http://www.w3.org/1999/xlink">
<g><path style="opacity:0.986" fill="#ed8a18" d="M 799.5,310.5 C 799.5,316.833 799.5,323.167 799.5,329.5C 797.24,335.353 794.407,341.02 791,346.5C 740.333,395.833 689.667,445.167 639,494.5C 631.941,502.837 628.107,512.504 627.5,523.5C 640.083,595.245 652.083,667.078 663.5,739C 662.894,757.6 654.228,770.933 637.5,779C 625.833,783.667 614.167,783.667 602.5,779C 539.658,745.745 476.658,712.745 413.5,680C 404.167,676.667 394.833,676.667 385.5,680C 322.342,712.745 259.342,745.745 196.5,779C 169.971,787.384 150.471,779.218 138,754.5C 136.263,749.483 135.43,744.316 135.5,739C 147.12,667.114 159.12,595.28 171.5,523.5C 170.893,512.504 167.059,502.837 160,494.5C 109.333,445.167 58.6667,395.833 8,346.5C 4.59336,341.02 1.76003,335.353 -0.5,329.5C -0.5,323.167 -0.5,316.833 -0.5,310.5C 4.14298,293.688 14.8096,282.521 31.5,277C 100.167,267 168.833,257 237.5,247C 250.542,244.951 260.709,238.451 268,227.5C 300.155,161.857 332.822,96.5234 366,31.5C 382.215,15.4588 400.715,12.2921 421.5,22C 427.289,25.4547 432.122,29.9547 436,35.5C 467.667,99.5 499.333,163.5 531,227.5C 538.291,238.451 548.458,244.951 561.5,247C 630.195,256.814 698.861,266.814 767.5,277C 784.19,282.521 794.857,293.688 799.5,310.5 Z M 397.5,64.5 C 399.686,65.8233 401.186,67.8233 402,70.5C 433.096,141.858 464.596,213.025 496.5,284C 579.52,298.892 662.52,313.892 745.5,329C 685.697,385.802 626.197,442.969 567,500.5C 579.134,573.797 592.3,646.964 606.5,720C 606.167,720.5 605.833,721 605.5,721.5C 535.955,684.228 466.288,647.228 396.5,610.5C 328.211,648.978 260.211,687.978 192.5,727.5C 205.593,658.535 219.426,589.535 234,520.5C 236.454,510.241 238.12,499.908 239,489.5C 178.833,433.333 118.667,377.167 58.5,321C 140.148,307.559 221.815,294.225 303.5,281C 335.25,209.002 366.583,136.835 397.5,64.5 Z"/></g>
</svg>
